HIERARCHY
ROOT Hips
{
	OFFSET 0.101329 88.952194 2.917683
	CHANNELS 6 Xposition Yposition Zposition Zrotation Yrotation Xrotation 
	JOINT Spine
	{
		OFFSET 0.000000 8.814246 -2.080107
		CHANNELS 3 Zrotation Yrotation Xrotation
		JOINT Spine1
		{
			OFFSET -0.000000 8.844141 0.000000
			CHANNELS 3 Zrotation Yrotation Xrotation
			JOINT Spine2
			{
				OFFSET -0.000000 11.682268 -0.000000
				CHANNELS 3 Zrotation Yrotation Xrotation
				JOINT Spine3
				{
					OFFSET -0.000000 11.746700 -0.000000
					CHANNELS 3 Zrotation Yrotation Xrotation
					JOINT Neck
					{
						OFFSET 0.000000 17.658264 0.000000
						CHANNELS 3 Zrotation Yrotation Xrotation
						JOINT Neck1
						{
							OFFSET 0.000000 5.101515 -0.000000
							CHANNELS 3 Zrotation Yrotation Xrotation
							JOINT Head
							{
								OFFSET -0.000000 5.101515 -0.000000
								CHANNELS 3 Zrotation Yrotation Xrotation
								JOINT HeadEnd
								{
									OFFSET -0.000000 11.655085 -0.000000
									CHANNELS 3 Zrotation Yrotation Xrotation
									End Site
									{
										OFFSET 0.000000 0.000000 0.000000
									}
								}
							}
						}
					}
					JOINT RightShoulder
					{
						OFFSET -2.625389 11.175210 0.000000
						CHANNELS 3 Zrotation Yrotation Xrotation
						JOINT RightArm
						{
							OFFSET -0.000000 10.434715 0.000000
							CHANNELS 3 Zrotation Yrotation Xrotation
							JOINT RightForeArm
							{
								OFFSET -0.000000 29.628420 0.000000
								CHANNELS 3 Zrotation Yrotation Xrotation
								JOINT RightHand
								{
									OFFSET 0.000000 22.857611 -0.000000
									CHANNELS 3 Zrotation Yrotation Xrotation
									JOINT RightHandThumb1
									{
										OFFSET -2.867323 3.959563 2.944291
										CHANNELS 3 Zrotation Yrotation Xrotation
										JOINT RightHandThumb2
										{
											OFFSET 0.000000 3.350399 0.000000
											CHANNELS 3 Zrotation Yrotation Xrotation
											JOINT RightHandThumb3
											{
												OFFSET -0.000000 3.756509 0.000000
												CHANNELS 3 Zrotation Yrotation Xrotation
												JOINT RightHandThumb4
												{
													OFFSET -0.000000 3.147345 -0.000000
													CHANNELS 3 Zrotation Yrotation Xrotation
													End Site
													{
														OFFSET 0.000000 0.000000 0.000000
													}
												}
											}
										}
									}
									JOINT RightHandIndex1
									{
										OFFSET -0.086752 10.030893 2.345280
										CHANNELS 3 Zrotation Yrotation Xrotation
										JOINT RightHandIndex2
										{
											OFFSET 0.000000 4.061090 0.000000
											CHANNELS 3 Zrotation Yrotation Xrotation
											JOINT RightHandIndex3
											{
												OFFSET -0.000000 3.248873 0.000000
												CHANNELS 3 Zrotation Yrotation Xrotation
												JOINT RightHandIndex4
												{
													OFFSET 0.000000 2.639709 -0.000000
													CHANNELS 3 Zrotation Yrotation Xrotation
													End Site
													{
														OFFSET 0.000000 0.000000 0.000000
													}
												}
											}
										}
									}
									JOINT RightHandMiddle1
									{
										OFFSET 0.104102 9.502952 0.006768
										CHANNELS 3 Zrotation Yrotation Xrotation
										JOINT RightHandMiddle2
										{
											OFFSET -0.000000 4.568727 -0.000000
											CHANNELS 3 Zrotation Yrotation Xrotation
											JOINT RightHandMiddle3
											{
												OFFSET 0.000000 3.654981 -0.000000
												CHANNELS 3 Zrotation Yrotation Xrotation
												JOINT RightHandMiddle4
												{
													OFFSET 0.000000 2.741236 -0.000000
													CHANNELS 3 Zrotation Yrotation Xrotation
													End Site
													{
														OFFSET 0.000000 0.000000 0.000000
													}
												}
											}
										}
									}
									JOINT RightHandRing1
									{
										OFFSET 0.086752 8.921708 -2.267442
										CHANNELS 3 Zrotation Yrotation Xrotation
										JOINT RightHandRing2
										{
											OFFSET 0.000000 4.061090 -0.000000
											CHANNELS 3 Zrotation Yrotation Xrotation
											JOINT RightHandRing3
											{
												OFFSET 0.000000 3.654981 -0.000000
												CHANNELS 3 Zrotation Yrotation Xrotation
												JOINT RightHandRing4
												{
													OFFSET -0.000000 2.741236 0.000000
													CHANNELS 3 Zrotation Yrotation Xrotation
													End Site
													{
														OFFSET 0.000000 0.000000 0.000000
													}
												}
											}
										}
									}
									JOINT RightHandPinky1
									{
										OFFSET -0.173504 7.976997 -4.467199
										CHANNELS 3 Zrotation Yrotation Xrotation
										JOINT RightHandPinky2
										{
											OFFSET -0.000000 3.350399 0.000000
											CHANNELS 3 Zrotation Yrotation Xrotation
											JOINT RightHandPinky3
											{
												OFFSET 0.000000 2.842763 -0.000000
												CHANNELS 3 Zrotation Yrotation Xrotation
												JOINT RightHandPinky4
												{
													OFFSET 0.000000 2.639709 -0.000000
													CHANNELS 3 Zrotation Yrotation Xrotation
													End Site
													{
														OFFSET 0.000000 0.000000 0.000000
													}
												}
											}
										}
									}
									JOINT RightForeArmEnd
									{
										OFFSET 0.000000 0.000000 0.000000
										CHANNELS 3 Zrotation Yrotation Xrotation
										End Site
										{
											OFFSET 0.000000 0.000000 0.000000
										}
									}
								}
								JOINT RightArmEnd
								{
									OFFSET 0.000000 0.000000 0.000000
									CHANNELS 3 Zrotation Yrotation Xrotation
									End Site
									{
										OFFSET 0.000000 0.000000 0.000000
									}
								}
							}
						}
					}
					JOINT LeftShoulder
					{
						OFFSET 2.625389 11.175210 0.000000
						CHANNELS 3 Zrotation Yrotation Xrotation
						JOINT LeftArm
						{
							OFFSET 0.000000 10.813635 0.000000
							CHANNELS 3 Zrotation Yrotation Xrotation
							JOINT LeftForeArm
							{
								OFFSET 0.000000 28.724781 0.000000
								CHANNELS 3 Zrotation Yrotation Xrotation
								JOINT LeftHand
								{
									OFFSET 0.644384 25.716167 -0.328871
									CHANNELS 3 Zrotation Yrotation Xrotation
									JOINT LeftHandThumb1
									{
										OFFSET 2.867323 3.959563 2.944291
										CHANNELS 3 Zrotation Yrotation Xrotation
										JOINT LeftHandThumb2
										{
											OFFSET -0.000000 3.350399 -0.000000
											CHANNELS 3 Zrotation Yrotation Xrotation
											JOINT LeftHandThumb3
											{
												OFFSET -0.000000 3.756509 -0.000000
												CHANNELS 3 Zrotation Yrotation Xrotation
												JOINT LeftHandThumb4
												{
													OFFSET -0.000000 3.100000 -0.000000
													CHANNELS 3 Zrotation Yrotation Xrotation
													End Site
													{
														OFFSET 0.000000 0.000000 0.000000
													}
												}
											}
										}
									}
									JOINT LeftHandIndex1
									{
										OFFSET 0.086752 10.030893 2.345280
										CHANNELS 3 Zrotation Yrotation Xrotation
										JOINT LeftHandIndex2
										{
											OFFSET 0.000000 4.061090 -0.000000
											CHANNELS 3 Zrotation Yrotation Xrotation
											JOINT LeftHandIndex3
											{
												OFFSET 0.000000 3.248873 0.000000
												CHANNELS 3 Zrotation Yrotation Xrotation
												JOINT LeftHandIndex4
												{
													OFFSET 0.000000 2.639709 -0.000000
													CHANNELS 3 Zrotation Yrotation Xrotation
													End Site
													{
														OFFSET 0.000000 0.000000 0.000000
													}
												}
											}
										}
									}
									JOINT LeftHandMiddle1
									{
										OFFSET -0.104102 9.502952 0.006768
										CHANNELS 3 Zrotation Yrotation Xrotation
										JOINT LeftHandMiddle2
										{
											OFFSET -0.000000 4.568727 -0.000000
											CHANNELS 3 Zrotation Yrotation Xrotation
											JOINT LeftHandMiddle3
											{
												OFFSET 0.000000 3.654981 -0.000000
												CHANNELS 3 Zrotation Yrotation Xrotation
												JOINT LeftHandMiddle4
												{
													OFFSET -0.000000 2.741236 -0.000000
													CHANNELS 3 Zrotation Yrotation Xrotation
													End Site
													{
														OFFSET 0.000000 0.000000 0.000000
													}
												}
											}
										}
									}
									JOINT LeftHandRing1
									{
										OFFSET -0.086752 8.921708 -2.267442
										CHANNELS 3 Zrotation Yrotation Xrotation
										JOINT LeftHandRing2
										{
											OFFSET 0.000000 4.061090 0.000000
											CHANNELS 3 Zrotation Yrotation Xrotation
											JOINT LeftHandRing3
											{
												OFFSET -0.000000 3.654981 0.000000
												CHANNELS 3 Zrotation Yrotation Xrotation
												JOINT LeftHandRing4
												{
													OFFSET -0.000000 2.741236 -0.000000
													CHANNELS 3 Zrotation Yrotation Xrotation
													End Site
													{
														OFFSET 0.000000 0.000000 0.000000
													}
												}
											}
										}
									}
									JOINT LeftHandPinky1
									{
										OFFSET 0.173504 7.976997 -4.467199
										CHANNELS 3 Zrotation Yrotation Xrotation
										JOINT LeftHandPinky2
										{
											OFFSET 0.000000 3.350399 0.000000
											CHANNELS 3 Zrotation Yrotation Xrotation
											JOINT LeftHandPinky3
											{
												OFFSET 0.000000 2.842763 0.000000
												CHANNELS 3 Zrotation Yrotation Xrotation
												JOINT LeftHandPinky4
												{
													OFFSET 0.000000 2.639709 0.000000
													CHANNELS 3 Zrotation Yrotation Xrotation
													End Site
													{
														OFFSET 0.000000 0.000000 0.000000
													}
												}
											}
										}
									}
									JOINT LeftForeArmEnd
									{
										OFFSET 0.000000 0.000000 0.000000
										CHANNELS 3 Zrotation Yrotation Xrotation
										End Site
										{
											OFFSET 0.000000 0.000000 0.000000
										}
									}
								}
								JOINT LeftArmEnd
								{
									OFFSET 0.000000 0.000000 0.000000
									CHANNELS 3 Zrotation Yrotation Xrotation
									End Site
									{
										OFFSET 0.000000 0.000000 0.000000
									}
								}
							}
						}
					}
				}
			}
		}
	}
	JOINT RightUpLeg
	{
		OFFSET -11.289943 0.000000 0.000000
		CHANNELS 3 Zrotation Yrotation Xrotation
		JOINT RightLeg
		{
			OFFSET -0.000000 -38.200325 -0.000000
			CHANNELS 3 Zrotation Yrotation Xrotation
			JOINT RightFoot
			{
				OFFSET 0.000000 -39.900856 0.000000
				CHANNELS 3 Zrotation Yrotation Xrotation
				JOINT RightToeBase
				{
					OFFSET -0.000000 -0.000000 15.261641
					CHANNELS 3 Zrotation Yrotation Xrotation
					JOINT RightToeBaseEnd
					{
						OFFSET 0.000000 0.000000 7.370709
						CHANNELS 3 Zrotation Yrotation Xrotation
						End Site
						{
							OFFSET 0.000000 0.000000 0.000000
						}
					}
				}
				JOINT RightLegEnd
				{
					OFFSET 0.000000 0.000000 0.000000
					CHANNELS 3 Zrotation Yrotation Xrotation
					End Site
					{
						OFFSET 0.000000 0.000000 0.000000
					}
				}
			}
			JOINT RightUpLegEnd
			{
				OFFSET 0.000000 0.000000 0.000000
				CHANNELS 3 Zrotation Yrotation Xrotation
				End Site
				{
					OFFSET 0.000000 0.000000 0.000000
				}
			}
		}
	}
	JOINT LeftUpLeg
	{
		OFFSET 11.315661 -0.000000 0.000000
		CHANNELS 3 Zrotation Yrotation Xrotation
		JOINT LeftLeg
		{
			OFFSET -0.000000 -38.200325 -0.000000
			CHANNELS 3 Zrotation Yrotation Xrotation
			JOINT LeftFoot
			{
				OFFSET 0.000000 -39.900856 0.000000
				CHANNELS 3 Zrotation Yrotation Xrotation
				JOINT LeftToeBase
				{
					OFFSET 0.000000 0.000000 15.261641
					CHANNELS 3 Zrotation Yrotation Xrotation
					JOINT LeftToeBaseEnd
					{
						OFFSET -0.000000 0.000000 7.539996
						CHANNELS 3 Zrotation Yrotation Xrotation
						End Site
						{
							OFFSET 0.000000 0.000000 0.000000
						}
					}
				}
				JOINT LeftLegEnd
				{
					OFFSET 0.000000 0.000000 0.000000
					CHANNELS 3 Zrotation Yrotation Xrotation
					End Site
					{
						OFFSET 0.000000 0.000000 0.000000
					}
				}
			}
			JOINT LeftUpLegEnd
			{
				OFFSET 0.000000 0.000000 0.000000
				CHANNELS 3 Zrotation Yrotation Xrotation
				End Site
				{
					OFFSET 0.000000 0.000000 0.000000
				}
			}
		}
	}
}
MOTION
Frames: 4
Frame Time: 0.016667
0.101329 88.952194 2.917683 -1.132711 -0.147069 -7.396804 2.090525 -0.400127 6.802540 -0.393571 -0.072774 2.416043 0.285164 -2.395693 2.611049 -0.478071 -0.783388 0.733877 1.656472 -0.173919 2.796704 0.637943 1.300678 -4.028639 -0.009431 -0.676668 -17.136953 0.000000 0.000000 0.000000 89.881905 0.018270 10.547983 69.458412 -40.200333 -3.018608 -1.460558 16.214289 102.423599 18.702307 25.145042 8.829534 27.380514 -1.348317 33.808323 0.000000 0.000000 -66.239990 0.000000 0.000000 -45.999992 0.000000 0.000000 0.000000 98.017868 0.000000 1.649274 68.612511 0.000000 0.000000 68.612511 0.000000 0.000000 0.000000 0.000000 0.000000 93.829926 -0.000000 6.090074 65.680939 0.000000 0.000000 65.680939 0.000000 0.000000 0.000000 0.000000 0.000000 93.395035 -0.000001 9.245642 65.376511 0.000000 0.000000 65.376511 0.000000 0.000000 0.000000 0.000000 0.000000 89.780899 0.000000 9.384584 62.846645 0.000000 0.000000 62.846645 0.000000 0.000000 0.000000 0.000000 0.000000 0.000000 0.000000 0.000000 0.000000 0.000000 0.000000 -89.565681 -0.070974 7.113561 -76.167488 36.854172 -16.245987 0.855744 -13.332052 106.601425 -16.287069 -31.919249 10.827449 -27.084862 1.386132 33.888203 0.000000 0.000000 -65.519997 0.000000 0.000000 -45.499996 0.000000 0.000000 0.000000 -91.774986 -0.000000 -1.304593 -64.242485 0.000000 0.000000 -64.242485 0.000000 0.000000 0.000000 0.000000 0.000000 -75.440681 0.000000 -1.009586 -52.808468 0.000000 0.000000 -52.808468 0.000000 0.000000 0.000000 0.000000 0.000000 -47.806202 0.000000 4.830015 -33.464344 0.000000 0.000000 -33.464344 0.000000 0.000000 0.000000 0.000000 0.000000 -29.838028 0.000000 1.753092 -20.886618 0.000000 0.000000 -20.886618 0.000000 0.000000 0.000000 0.000000 0.000000 0.000000 0.000000 0.000000 0.000000 0.000000 0.000000 -5.410686 -14.241936 7.244928 -0.109278 -1.318839 4.842473 2.057472 -8.352993 24.629242 -0.963072 1.772247 -21.661638 0.000000 0.000000 0.000000 0.000000 0.000000 0.000000 0.000000 0.000000 0.000000 6.891490 -6.733429 3.950771 0.223430 1.452204 8.623794 -3.341887 3.981394 20.097816 0.777939 -1.470225 -23.646471 0.000000 0.000000 0.000000 0.000000 0.000000 0.000000 0.000000 0.000000 0.000000 
0.372782 88.881104 2.964398 -0.920784 -0.612561 -8.710440 1.747355 -0.104710 6.549762 0.697373 -0.244427 4.617792 -0.687070 -0.739806 3.255188 -1.170671 -0.502162 2.608767 1.314558 -0.623844 1.297819 -0.207487 -0.182843 -5.524084 -0.281172 -0.935045 -17.424574 0.000000 0.000000 0.000000 89.097313 0.163688 9.170456 67.819962 -42.110363 0.501868 -1.120723 16.536049 99.611374 15.799661 23.877214 9.651369 26.209166 -1.475338 33.903934 -0.000008 0.000033 -64.163628 -0.000006 0.000041 -44.597061 0.000007 -0.000008 -0.000040 92.692810 -0.126519 -0.777011 62.773678 1.556622 -1.878164 62.819260 1.569145 -1.621909 -0.000004 0.000014 -0.000038 90.647148 -0.002621 3.654174 61.937374 0.593423 -0.851927 61.929276 0.535158 -0.693652 0.000003 -0.000089 -0.000006 90.405762 -0.057091 8.560700 63.374817 -1.187766 1.081486 63.422512 -0.784710 0.848564 -0.000011 -0.000650 -0.000019 82.482162 0.145983 11.893803 59.627083 -3.495254 3.405771 59.978722 -2.953498 2.727489 0.000147 0.000004 0.000073 0.000000 0.000000 0.000000 0.000000 0.000000 0.000000 -87.949181 0.431512 5.667097 -72.902809 33.531906 -10.148991 1.483547 -8.647669 103.790337 -14.650342 -34.122471 16.791513 -24.887506 2.147914 33.817223 0.000014 0.000017 -58.321075 -0.000001 -0.000012 -41.143902 -0.000205 0.000005 0.000688 -71.923111 -0.065609 -4.043984 -50.831802 0.642130 0.656139 -50.962402 0.672035 0.518897 0.000043 -0.000330 0.000034 -66.438309 0.018241 -1.798202 -46.957714 0.214319 0.340396 -46.707367 0.187508 0.261668 -0.000259 -0.000034 0.000178 -51.680912 0.028914 -1.703353 -35.717728 -0.411179 -0.311953 -35.750515 -0.323506 -0.215367 0.000341 0.000010 0.000001 -30.142532 0.289539 2.154007 -21.107290 -1.306694 0.074249 -22.479345 -1.134766 0.093797 0.001005 0.000010 -0.000031 0.000000 0.000000 0.000000 0.000000 0.000000 0.000000 -7.333728 -13.274334 9.324288 -0.156709 -0.945821 5.423109 2.274139 -9.328504 23.064051 -0.971752 1.224619 -20.212578 0.000000 0.000000 0.000000 0.000000 0.000000 0.000000 0.000000 0.000000 0.000000 8.189363 -2.781289 6.583597 0.266479 0.999543 9.308449 -3.770292 -0.908899 19.803265 0.516269 -1.103762 -22.084696 0.000000 0.000000 0.000000 0.000000 0.000000 0.000000 0.000000 0.000000 0.000000 
0.447613 88.866272 2.970056 -0.814231 -0.811956 -8.786526 1.675672 -0.056507 6.671659 0.776244 -0.240651 4.350721 -0.856158 -0.666209 3.823585 -1.132616 -0.458025 2.726786 1.270724 -0.719265 1.643601 -0.204600 -0.398959 -5.224023 -0.258870 -0.946074 -17.359308 0.000000 0.000000 0.000000 88.874519 0.193269 9.559399 67.538849 -41.630554 1.078817 -1.147092 15.995375 100.819275 15.189420 24.543983 10.010194 26.310772 -1.504806 33.813488 -0.000020 0.000036 -64.339722 0.000001 0.000034 -44.781704 0.000013 -0.000007 -0.000041 92.289253 -0.144504 -1.277767 62.711323 1.570638 -1.994362 62.731247 1.582571 -1.726774 -0.000003 0.000019 -0.000023 90.403244 -0.016653 3.209457 61.921303 0.598208 -0.897032 61.913845 0.540685 -0.731287 0.000000 -0.000104 -0.000008 90.454475 -0.046678 8.104680 63.443363 -1.195582 1.122046 63.485130 -0.786083 0.886523 -0.000014 -0.000504 -0.000020 82.746483 0.141889 11.720389 59.813808 -3.486200 3.491971 60.144390 -2.943231 2.811686 -0.000020 0.000004 0.000064 0.000000 0.000000 0.000000 0.000000 0.000000 0.000000 -87.391182 0.398368 5.798771 -72.876434 33.509457 -9.844724 1.471069 -8.617898 104.025360 -14.843944 -32.573341 15.165791 -24.478954 2.133141 34.025440 0.000021 0.000009 -57.465786 -0.000073 -0.000010 -40.514408 -0.000227 0.000016 0.000704 -70.596527 -0.082193 -4.382433 -49.511101 0.627306 0.620841 -49.692348 0.656326 0.498804 0.000043 -0.000607 0.000037 -65.176155 0.007195 -2.329291 -45.744118 0.207762 0.329484 -45.496250 0.182515 0.255330 0.000063 -0.000036 0.000173 -51.014431 0.046572 -2.303300 -35.143307 -0.397350 -0.291314 -35.151009 -0.313162 -0.203138 0.000281 0.000014 0.000009 -31.031208 0.288384 1.413508 -21.549307 -1.263569 0.134449 -22.925295 -1.092250 0.108194 0.001036 0.000010 -0.000034 0.000000 0.000000 0.000000 0.000000 0.000000 0.000000 -7.420780 -12.978538 9.087308 -0.162543 -0.952854 5.440336 2.157691 -8.461864 22.934317 -0.978750 1.240660 -20.003036 0.000000 0.000000 0.000000 0.000000 0.000000 0.000000 0.000000 0.000000 0.000000 8.087108 -2.616524 6.837257 0.255256 0.960329 9.083385 -3.725770 -0.400000 19.635401 0.559668 -1.108675 -22.003290 0.000000 0.000000 0.000000 0.000000 0.000000 0.000000 0.000000 0.000000 0.000000 
0.501364 88.865021 2.959158 -0.775232 -0.973334 -8.903883 1.600172 -0.038198 6.789435 0.797620 -0.227781 4.250670 -0.980392 -0.494184 4.203102 -1.153666 -0.387571 2.926542 1.347800 -0.815874 1.931444 -0.257037 -0.603912 -5.047312 -0.218332 -0.898631 -17.430326 0.000000 0.000000 0.000000 88.610382 0.214632 9.850111 67.227066 -41.190502 1.558026 -1.121980 15.661712 101.806938 15.095071 25.381838 10.274091 26.263826 -1.531529 33.799877 -0.000022 0.000034 -64.208542 -0.000001 0.000036 -44.713604 0.000013 -0.000008 -0.000040 91.608826 -0.158569 -1.568627 62.380981 1.561159 -2.025415 62.384163 1.573941 -1.754170 -0.000005 0.000019 -0.000021 89.834206 -0.027379 2.878166 61.643929 0.594059 -0.908535 61.633068 0.537241 -0.740149 0.000001 -0.000119 -0.000007 90.165413 -0.037575 7.689990 63.300045 -1.188460 1.126271 63.330925 -0.777359 0.894547 -0.000012 -0.000492 -0.000018 82.804390 0.148389 11.355476 59.854305 -3.440794 3.498962 60.154724 -2.903266 2.822335 -0.000096 0.000003 0.000055 0.000000 0.000000 0.000000 0.000000 0.000000 0.000000 -86.910431 0.409450 5.874929 -72.727692 33.825634 -9.558560 1.468552 -8.241444 104.222160 -14.918901 -30.810213 14.178706 -23.993872 2.123107 34.262272 0.000020 0.000009 -56.419022 -0.000114 -0.000009 -39.753613 -0.000266 0.000012 0.000533 -69.023994 -0.095817 -4.937246 -48.062405 0.602520 0.535228 -48.273628 0.630844 0.430941 0.000041 -0.000679 0.000037 -63.663662 -0.002845 -3.038986 -44.409676 0.197124 0.295659 -44.168449 0.173876 0.229406 -0.000159 -0.000036 0.000172 -50.207306 0.061248 -3.053465 -34.477268 -0.376332 -0.240331 -34.474957 -0.296291 -0.166151 0.000302 0.000014 0.000009 -31.806759 0.297678 0.562828 -21.871126 -1.198606 0.279302 -23.209616 -1.033262 0.194835 0.001016 0.000008 -0.000033 0.000000 0.000000 0.000000 0.000000 0.000000 0.000000 -7.394081 -12.664052 8.906156 -0.164661 -0.960653 5.534081 2.021223 -7.835589 22.895123 -0.956892 1.241274 -19.908400 0.000000 0.000000 0.000000 0.000000 0.000000 0.000000 0.000000 0.000000 0.000000 8.096581 -2.432433 7.013515 0.245380 0.922231 9.038138 -3.723377 0.180854 19.552582 0.595914 -1.106978 -22.008316 0.000000 0.000000 0.000000 0.000000 0.000000 0.000000 0.000000 0.000000 0.000000 
